<svg id="visual" viewBox="0 0 2000 200" width="2000" height="200" xmlns="http://www.w3.org/2000/svg" xmlns:xlink="http://www.w3.org/1999/xlink" version="1.1"><path d="M0 136L37 136.2C74 136.3 148 136.7 222 136.2C296 135.7 370 134.3 444.2 133.7C518.3 133 592.7 133 666.8 134.2C741 135.3 815 137.7 889 139C963 140.3 1037 140.7 1111 139.5C1185 138.3 1259 135.7 1333.2 131.7C1407.3 127.7 1481.7 122.3 1555.8 121C1630 119.7 1704 122.3 1778 125.8C1852 129.3 1926 133.7 1963 135.8L2000 138L2000 201L1963 201C1926 201 1852 201 1778 201C1704 201 1630 201 1555.8 201C1481.7 201 1407.3 201 1333.2 201C1259 201 1185 201 1111 201C1037 201 963 201 889 201C815 201 741 201 666.8 201C592.7 201 518.3 201 444.2 201C370 201 296 201 222 201C148 201 74 201 37 201L0 201Z" fill="#001122" stroke-linecap="round" stroke-linejoin="miter"></path></svg>