<svg id="visual" viewBox="0 0 960 540" width="960" height="540" xmlns="http://www.w3.org/2000/svg" xmlns:xlink="http://www.w3.org/1999/xlink" version="1.1"><rect x="0" y="0" width="960" height="540" fill="#001220"></rect><path d="M0 328L26.7 334.2C53.3 340.3 106.7 352.7 160 354.3C213.3 356 266.7 347 320 353.2C373.3 359.3 426.7 380.7 480 378C533.3 375.3 586.7 348.7 640 344.5C693.3 340.3 746.7 358.7 800 359.2C853.3 359.7 906.7 342.3 933.3 333.7L960 325L960 541L933.3 541C906.7 541 853.3 541 800 541C746.7 541 693.3 541 640 541C586.7 541 533.3 541 480 541C426.7 541 373.3 541 320 541C266.7 541 213.3 541 160 541C106.7 541 53.3 541 26.7 541L0 541Z" fill="#ba8722"></path><path d="M0 414L26.7 409.2C53.3 404.3 106.7 394.7 160 394.7C213.3 394.7 266.7 404.3 320 401.8C373.3 399.3 426.7 384.7 480 383.3C533.3 382 586.7 394 640 402.2C693.3 410.3 746.7 414.7 800 415.7C853.3 416.7 906.7 414.3 933.3 413.2L960 412L960 541L933.3 541C906.7 541 853.3 541 800 541C746.7 541 693.3 541 640 541C586.7 541 533.3 541 480 541C426.7 541 373.3 541 320 541C266.7 541 213.3 541 160 541C106.7 541 53.3 541 26.7 541L0 541Z" fill="#b9761e"></path><path d="M0 450L26.7 451.2C53.3 452.3 106.7 454.7 160 449.8C213.3 445 266.7 433 320 427C373.3 421 426.7 421 480 427.8C533.3 434.7 586.7 448.3 640 452.8C693.3 457.3 746.7 452.7 800 447.8C853.3 443 906.7 438 933.3 435.5L960 433L960 541L933.3 541C906.7 541 853.3 541 800 541C746.7 541 693.3 541 640 541C586.7 541 533.3 541 480 541C426.7 541 373.3 541 320 541C266.7 541 213.3 541 160 541C106.7 541 53.3 541 26.7 541L0 541Z" fill="#b6661f"></path><path d="M0 495L26.7 495.2C53.3 495.3 106.7 495.7 160 491C213.3 486.3 266.7 476.7 320 479.2C373.3 481.7 426.7 496.3 480 496.7C533.3 497 586.7 483 640 475.3C693.3 467.7 746.7 466.3 800 467.3C853.3 468.3 906.7 471.7 933.3 473.3L960 475L960 541L933.3 541C906.7 541 853.3 541 800 541C746.7 541 693.3 541 640 541C586.7 541 533.3 541 480 541C426.7 541 373.3 541 320 541C266.7 541 213.3 541 160 541C106.7 541 53.3 541 26.7 541L0 541Z" fill="#b25521"></path></svg>