<svg id="visual" viewBox="0 0 2000 200" width="2000" height="200" xmlns="http://www.w3.org/2000/svg" xmlns:xlink="http://www.w3.org/1999/xlink" version="1.1"><path d="M0 150L66.7 147.3C133.3 144.7 266.7 139.3 400 139.7C533.3 140 666.7 146 800 145.3C933.3 144.7 1066.7 137.3 1200 133.2C1333.3 129 1466.7 128 1600 131.2C1733.3 134.3 1866.7 141.7 1933.3 145.3L2000 149L2000 201L1933.3 201C1866.7 201 1733.3 201 1600 201C1466.7 201 1333.3 201 1200 201C1066.7 201 933.3 201 800 201C666.7 201 533.3 201 400 201C266.7 201 133.3 201 66.7 201L0 201Z" fill="#b37e22" stroke-linecap="round" stroke-linejoin="miter"></path></svg>